<mxfile host="app.diagrams.net" modified="2023-07-26T07:34:52.869Z" agent="Mozilla/5.0 (Windows NT 10.0; Win64; x64) AppleWebKit/537.36 (KHTML, like Gecko) Chrome/115.0.0.0 Safari/537.36" etag="U6c2LSPl0J3prZlvcjBk" version="21.6.5" type="github">
  <diagram name="페이지-1" id="c10Dq6gmgTprXHjwFnOP">
    <mxGraphModel dx="1434" dy="782" grid="1" gridSize="10" guides="1" tooltips="1" connect="1" arrows="1" fold="1" page="1" pageScale="1" pageWidth="827" pageHeight="1169" math="0" shadow="0">
      <root>
        <mxCell id="0" />
        <mxCell id="1" parent="0" />
        <mxCell id="9V2Q3iU6bukOJNMwM3mh-5" value="" style="edgeStyle=orthogonalEdgeStyle;rounded=0;orthogonalLoop=1;jettySize=auto;html=1;" edge="1" parent="1" source="9V2Q3iU6bukOJNMwM3mh-1" target="9V2Q3iU6bukOJNMwM3mh-4">
          <mxGeometry relative="1" as="geometry" />
        </mxCell>
        <mxCell id="9V2Q3iU6bukOJNMwM3mh-21" style="edgeStyle=orthogonalEdgeStyle;rounded=0;orthogonalLoop=1;jettySize=auto;html=1;entryX=0;entryY=0.5;entryDx=0;entryDy=0;" edge="1" parent="1" source="9V2Q3iU6bukOJNMwM3mh-1" target="9V2Q3iU6bukOJNMwM3mh-19">
          <mxGeometry relative="1" as="geometry" />
        </mxCell>
        <mxCell id="9V2Q3iU6bukOJNMwM3mh-23" style="edgeStyle=orthogonalEdgeStyle;rounded=0;orthogonalLoop=1;jettySize=auto;html=1;entryX=0;entryY=0.5;entryDx=0;entryDy=0;" edge="1" parent="1" source="9V2Q3iU6bukOJNMwM3mh-1" target="9V2Q3iU6bukOJNMwM3mh-18">
          <mxGeometry relative="1" as="geometry" />
        </mxCell>
        <mxCell id="9V2Q3iU6bukOJNMwM3mh-1" value="유저&lt;br&gt;" style="shape=umlActor;verticalLabelPosition=bottom;verticalAlign=top;html=1;outlineConnect=0;" vertex="1" parent="1">
          <mxGeometry x="40" y="290" width="30" height="60" as="geometry" />
        </mxCell>
        <mxCell id="9V2Q3iU6bukOJNMwM3mh-3" value="게시판 서비스" style="shape=umlFrame;whiteSpace=wrap;html=1;pointerEvents=0;width=120;height=40;" vertex="1" parent="1">
          <mxGeometry x="80" y="80" width="640" height="560" as="geometry" />
        </mxCell>
        <mxCell id="9V2Q3iU6bukOJNMwM3mh-7" value="" style="edgeStyle=orthogonalEdgeStyle;rounded=0;orthogonalLoop=1;jettySize=auto;html=1;" edge="1" parent="1" source="9V2Q3iU6bukOJNMwM3mh-4" target="9V2Q3iU6bukOJNMwM3mh-6">
          <mxGeometry relative="1" as="geometry" />
        </mxCell>
        <mxCell id="9V2Q3iU6bukOJNMwM3mh-10" style="edgeStyle=orthogonalEdgeStyle;rounded=0;orthogonalLoop=1;jettySize=auto;html=1;" edge="1" parent="1" source="9V2Q3iU6bukOJNMwM3mh-4" target="9V2Q3iU6bukOJNMwM3mh-9">
          <mxGeometry relative="1" as="geometry" />
        </mxCell>
        <mxCell id="9V2Q3iU6bukOJNMwM3mh-17" style="edgeStyle=orthogonalEdgeStyle;rounded=0;orthogonalLoop=1;jettySize=auto;html=1;entryX=0;entryY=0.5;entryDx=0;entryDy=0;" edge="1" parent="1" source="9V2Q3iU6bukOJNMwM3mh-4" target="9V2Q3iU6bukOJNMwM3mh-16">
          <mxGeometry relative="1" as="geometry" />
        </mxCell>
        <mxCell id="9V2Q3iU6bukOJNMwM3mh-4" value="게시글 목록" style="html=1;whiteSpace=wrap;" vertex="1" parent="1">
          <mxGeometry x="120" y="370" width="110" height="60" as="geometry" />
        </mxCell>
        <mxCell id="9V2Q3iU6bukOJNMwM3mh-6" value="게시글 검색" style="html=1;whiteSpace=wrap;" vertex="1" parent="1">
          <mxGeometry x="290" y="335" width="110" height="50" as="geometry" />
        </mxCell>
        <mxCell id="9V2Q3iU6bukOJNMwM3mh-13" value="" style="edgeStyle=orthogonalEdgeStyle;rounded=0;orthogonalLoop=1;jettySize=auto;html=1;" edge="1" parent="1" source="9V2Q3iU6bukOJNMwM3mh-9" target="9V2Q3iU6bukOJNMwM3mh-12">
          <mxGeometry relative="1" as="geometry" />
        </mxCell>
        <mxCell id="9V2Q3iU6bukOJNMwM3mh-15" style="edgeStyle=orthogonalEdgeStyle;rounded=0;orthogonalLoop=1;jettySize=auto;html=1;" edge="1" parent="1" source="9V2Q3iU6bukOJNMwM3mh-9" target="9V2Q3iU6bukOJNMwM3mh-14">
          <mxGeometry relative="1" as="geometry" />
        </mxCell>
        <mxCell id="9V2Q3iU6bukOJNMwM3mh-9" value="게시글 상세 입장" style="html=1;whiteSpace=wrap;" vertex="1" parent="1">
          <mxGeometry x="290" y="430" width="110" height="55" as="geometry" />
        </mxCell>
        <mxCell id="9V2Q3iU6bukOJNMwM3mh-12" value="댓글/ 대댓글 작성/수정/삭제" style="html=1;whiteSpace=wrap;" vertex="1" parent="1">
          <mxGeometry x="440" y="390" width="110" height="55" as="geometry" />
        </mxCell>
        <mxCell id="9V2Q3iU6bukOJNMwM3mh-14" value="게시글에 대한 좋아요/ 안좋아요" style="html=1;whiteSpace=wrap;" vertex="1" parent="1">
          <mxGeometry x="440" y="485" width="110" height="55" as="geometry" />
        </mxCell>
        <mxCell id="9V2Q3iU6bukOJNMwM3mh-16" value="게시글 작성/수정/삭제" style="html=1;whiteSpace=wrap;" vertex="1" parent="1">
          <mxGeometry x="290" y="530" width="110" height="55" as="geometry" />
        </mxCell>
        <mxCell id="9V2Q3iU6bukOJNMwM3mh-18" value="회원가입" style="html=1;whiteSpace=wrap;" vertex="1" parent="1">
          <mxGeometry x="170" y="130" width="110" height="60" as="geometry" />
        </mxCell>
        <mxCell id="9V2Q3iU6bukOJNMwM3mh-19" value="로그인" style="html=1;whiteSpace=wrap;" vertex="1" parent="1">
          <mxGeometry x="170" y="220" width="110" height="60" as="geometry" />
        </mxCell>
      </root>
    </mxGraphModel>
  </diagram>
</mxfile>
